<svg width="24" height="24" viewBox="0 0 24 24" fill="none" xmlns="http://www.w3.org/2000/svg">
<path d="M2.99815 6.70488L2.1994 6.88863C2.1994 6.88863 1.09128 8.59863 0.849404 10.4174C0.697529 11.5593 0.691904 13.0499 0.796904 13.7924C0.903779 14.5349 1.28628 16.1155 1.88815 17.2293C2.46753 18.3018 3.0319 18.7236 3.64878 19.0968C3.91315 19.2561 4.1494 19.8018 4.5619 20.0661C4.94815 20.3136 5.45815 20.3624 5.45815 20.3624C5.45815 20.3624 6.86815 22.5768 9.91878 22.9611C13.4982 23.4111 15.2494 21.7949 15.2494 21.7949C15.2494 21.7949 16.6819 21.7911 18.0338 21.2118C19.5507 20.5611 20.3607 19.2074 20.3607 19.2074C20.3607 19.2074 22.26 17.5724 22.8619 15.6149C23.3456 14.0436 23.3588 11.0568 22.9875 9.6505C22.6163 8.24425 21.8982 7.05363 21.3282 6.2905C20.8744 5.68301 15.8082 2.99051 15.1969 2.75051C14.5875 2.51238 8.9119 2.14113 8.70003 2.30051C8.48815 2.46176 2.99815 6.70488 2.99815 6.70488Z" fill="#AC5811"/>
<path d="M4.97438 3.70317C3.65251 4.77942 2.96813 5.34192 2.28188 6.68817C1.59563 8.03442 1.81688 9.82129 1.94063 10.4813C2.06251 11.1413 2.28376 12.4144 2.40563 13.05C2.52751 13.6875 2.85188 15.1988 3.75001 16.1344C5.00813 17.445 6.14813 17.8969 6.14813 17.8969C6.14813 17.8969 7.07251 19.3294 9.30563 20.1488C12.2419 21.225 13.5638 19.6594 14.6888 19.2432C15.8138 18.8269 17.16 18.8025 18.3113 17.9944C19.4606 17.1863 20.7338 16.2075 21.5663 14.1525C22.3988 12.0975 22.2263 11.1919 22.2506 10.6782C22.275 10.1644 22.2019 7.69317 21.2475 6.17629C20.2931 4.65942 19.1456 3.74817 18.7031 3.45942C17.7244 2.82379 14.2294 1.30317 13.35 1.13254C12.4688 0.961917 9.32626 1.22817 8.07938 1.74192C6.83251 2.25567 4.97438 3.70317 4.97438 3.70317Z" fill="url(#paint0_radial_96_401)"/>
<path d="M10.5525 13.3988C10.3444 13.3332 10.125 13.0238 10.0725 12.3619C9.9994 11.4188 10.695 11.1582 10.695 11.1582C10.695 11.1582 11.5238 10.9388 12.1069 10.7307C12.6488 10.5375 13.0388 10.29 13.0388 10.29C13.0388 10.29 13.0913 9.27941 13.4269 8.98129C13.7644 8.68316 14.3588 8.70941 15.0207 8.78629C15.6807 8.86316 16.7438 9.30379 16.5882 9.70504C16.4325 10.1063 16.2507 10.5075 15.6169 10.8713C14.9832 11.2332 14.5294 11.5707 14.205 11.8557C13.8807 12.1425 13.2863 12.5025 12.3019 12.8663C11.3175 13.23 10.8525 13.4925 10.5525 13.3988Z" fill="#FFC86E"/>
<path d="M4.97807 4.96305C4.35557 4.83555 3.47619 6.18368 3.31307 6.62993C3.14807 7.07618 2.97932 8.16368 2.96057 8.66055C2.93619 9.27743 2.92494 9.8568 3.18369 10.3274C3.38244 10.6912 3.86432 10.8956 4.29744 10.5206C4.73057 10.1456 5.48244 9.11805 5.68119 8.97368C5.87994 8.8293 6.46119 8.63805 6.23244 7.69305C6.13869 7.3068 5.18807 6.50805 5.14119 6.3993C5.09619 6.29243 5.33057 5.03618 4.97807 4.96305Z" fill="#FFC86E"/>
<path d="M9.37874 3.27005C9.40312 3.63192 9.69937 4.2113 10.02 4.52442C10.5 4.9913 12.7012 6.57005 13.2712 6.48005C13.8412 6.39005 14.4619 5.3663 14.6437 5.0813C14.8256 4.7963 15.1875 4.39505 15.33 4.21317C15.4725 4.0313 15.8475 3.61692 15.5381 3.20255C15.2269 2.78817 14.4506 2.5163 13.9331 2.47692C13.4156 2.43755 12.6112 2.10192 11.925 2.12817C11.2387 2.15442 9.31499 2.3363 9.37874 3.27005Z" fill="#FFC86E"/>
<path d="M18.4387 8.09815C18.4819 8.4919 19.035 8.57815 19.4756 8.86315C19.9162 9.14815 20.2144 9.44627 20.4731 9.36752C20.7319 9.29065 21.0844 8.87627 21.0037 8.15065C20.9006 7.21877 20.3175 6.02627 19.5019 6.06565C19.0087 6.09002 19.0762 6.9469 19.0762 6.9469C19.0762 6.9469 18.4125 7.86565 18.4387 8.09815Z" fill="#FFC86E"/>
<path d="M7.77562 5.6682C7.77562 5.6682 6.00749 5.65695 6.03937 5.8332C6.07312 6.00945 6.22687 6.5907 6.68812 6.6132C7.14937 6.6357 7.74374 6.67883 8.02874 6.5907C8.31374 6.50258 9.10499 5.86508 9.10499 5.58008C9.10499 5.29508 8.78624 4.87695 8.78624 4.87695L7.77562 5.6682Z" fill="#CF701E"/>
<path d="M10.3012 8.90988C10.3012 8.90988 10.2806 8.92301 10.2506 8.94738C10.1625 9.02051 9.99373 9.19113 10.0594 9.38238C10.1475 9.63551 10.6631 10.108 11.1694 10.108C11.6756 10.108 11.9494 9.63551 12.0375 9.32801C12.1256 9.02051 12.0806 8.83301 12.0806 8.83301L10.3012 8.90988Z" fill="#CF701E"/>
<path d="M6.35807 10.35C6.35807 10.35 6.05057 10.4607 6.06182 10.6575C6.07307 10.8544 6.14995 11.2182 6.54557 11.6025C6.94495 11.9907 7.52432 12.0975 8.0512 11.955C8.57807 11.8125 8.96245 11.4169 8.91932 10.89C8.8762 10.3632 8.36995 9.9563 8.36995 9.9563L6.35807 10.35Z" fill="#CF701E"/>
<path d="M4.08371 13.2619C4.08371 13.2619 3.75371 13.3387 3.78746 13.5581C3.82121 13.7775 4.19433 14.4694 4.78683 14.3925C5.37933 14.3156 6.31496 13.635 6.31496 13.3706C6.31496 13.1062 5.84246 12.7556 5.84246 12.7556L4.08371 13.2619Z" fill="#CF701E"/>
<path d="M8.12624 16.0088C8.12624 16.0088 8.00437 16.7175 8.96062 16.9763C10.5544 17.4057 10.7194 16.4382 10.7194 16.4382L8.12624 16.0088Z" fill="#CF701E"/>
<path d="M14.3869 16.3369C14.3869 16.3369 13.9594 16.7644 14.445 17.1C14.9306 17.4357 15.4838 17.55 16.005 17.4919C16.5263 17.4338 16.8825 17.0175 16.8825 17.0175L14.3869 16.3369Z" fill="#CF701E"/>
<path d="M18.3769 11.5894C18.3769 11.5894 17.5706 11.9962 18.195 12.6994C18.6694 13.2356 19.755 13.1269 20.1994 12.825C20.49 12.6281 20.5762 12.2794 20.4675 12.1031C20.3569 11.9269 18.3769 11.5894 18.3769 11.5894Z" fill="#CF701E"/>
<path d="M15.2569 6.9318C15.2569 6.9318 15.2138 7.85242 16.455 7.82242C18.1913 7.7793 17.9719 6.70117 17.9719 6.70117L15.2569 6.9318Z" fill="#CF701E"/>
<path d="M16.0594 5.77873C16.0594 5.77873 15.2456 6.28498 15.1575 6.49311C15.0694 6.70123 14.8819 7.36123 15.8269 7.31811C16.7719 7.27498 17.7169 7.24123 18.0356 6.85686C18.3544 6.47248 18.2775 6.11998 18.1463 5.83498C18.015 5.54998 17.2763 4.47186 16.6894 4.48498C16.305 4.49248 16.0594 5.77873 16.0594 5.77873Z" fill="#593329"/>
<path d="M16.6856 4.48128C16.6856 4.48128 16.17 4.41565 15.7181 5.21815C15.2681 6.02065 15.1519 6.49878 15.1519 6.49878C15.1519 6.49878 16.0687 6.50253 16.6181 6.4369C17.1675 6.37128 17.5406 6.03003 17.5406 6.03003C17.5406 6.03003 17.0925 4.58065 16.6856 4.48128Z" fill="#925849"/>
<path d="M10.4457 8.22926C10.4457 8.22926 9.99566 8.19926 9.96191 8.37364C9.92816 8.54989 10.0275 8.99801 10.1813 9.19489C10.335 9.39176 10.7963 9.83239 11.2575 9.74426C11.7188 9.65614 11.9925 9.20426 12.0694 9.04864C12.1388 8.90239 12.2138 8.74489 12.0825 8.54801C11.9494 8.34926 10.4457 8.22926 10.4457 8.22926Z" fill="#593329"/>
<path d="M11.115 7.52633C10.7325 7.48508 9.81 8.21821 9.975 8.46946C10.1587 8.74508 10.1906 8.57071 10.6969 8.82383C11.115 9.03196 11.2969 9.22508 11.5594 9.19133C11.8219 9.15758 12.135 8.72446 12.0806 8.54821C12.0262 8.37196 11.6325 7.58071 11.115 7.52633Z" fill="#925849"/>
<path d="M6.78567 4.55814L5.88567 5.18064C5.88567 5.18064 5.85192 5.60252 6.03942 5.83314C6.22692 6.06377 6.28129 6.20627 7.16067 6.20627C8.04004 6.20627 8.86317 6.08627 9.01692 5.46002C9.17067 4.83377 8.90067 4.43252 8.73567 4.20189C8.57067 3.97127 6.78567 4.55814 6.78567 4.55814Z" fill="#593329"/>
<path d="M6.79685 3.58118C6.59435 3.66743 6.11622 4.31806 6.0056 4.60306C5.89497 4.88806 5.8706 5.19181 5.8856 5.19556C6.06747 5.24056 7.1381 5.33993 7.6106 5.26306C8.0831 5.18618 8.46747 4.97806 8.62122 4.70243C8.7431 4.48306 8.73372 4.19243 8.73372 4.19243C8.73372 4.19243 8.4131 3.61493 7.97247 3.43868C7.53372 3.26243 6.87372 3.54743 6.79685 3.58118Z" fill="#925949"/>
<path d="M6.04316 10.3911C6.04316 10.3911 5.96816 10.5055 6.11066 10.7249C6.25316 10.9443 6.53254 11.2068 6.95066 11.3286C7.36879 11.4486 7.66504 11.6136 7.93879 11.5818C8.21441 11.548 8.75254 11.3286 8.77316 10.5711C8.79566 9.81365 8.64191 9.46115 8.31191 9.13115C7.98191 8.80115 7.74379 8.8574 7.74379 8.8574L6.04316 10.3911Z" fill="#593329"/>
<path d="M6.13869 9.69011C6.02244 9.88511 5.93619 10.5189 6.07869 10.6614C6.22119 10.8039 7.07807 10.8132 7.30307 10.7889C7.52994 10.7645 8.27056 10.4157 8.28181 10.1514C8.29306 9.88699 8.15056 9.53636 8.15056 9.40511C8.15056 9.27386 8.31556 8.96636 7.86556 8.85574C7.41556 8.74511 6.37869 9.28324 6.13869 9.69011Z" fill="#925849"/>
<path d="M4.65376 12.5364C4.65376 12.5364 3.94689 12.7107 3.90189 12.9526C3.85876 13.1945 3.96001 13.4382 4.20189 13.6689C4.44376 13.8995 4.62001 14.1414 4.80564 14.1189C4.99314 14.0964 5.48626 13.6576 5.64001 13.5151C5.79376 13.3726 6.01314 13.1195 5.99251 12.9114C5.97189 12.7032 5.88189 12.4932 5.68501 12.3282C5.49001 12.1632 4.65376 12.5364 4.65376 12.5364Z" fill="#593329"/>
<path d="M4.83002 11.9099C4.50002 11.9174 4.24689 12.3168 4.13814 12.4593C4.02752 12.6018 3.84189 12.943 3.91877 12.9974C3.99564 13.0518 4.31439 13.0855 4.46814 13.1849C4.62189 13.2843 4.85252 13.438 5.02877 13.2955C5.20502 13.153 5.35877 12.7574 5.44689 12.6261C5.53502 12.4949 5.68877 12.3299 5.68877 12.3299C5.68877 12.3299 5.35689 11.8986 4.83002 11.9099Z" fill="#925849"/>
<path d="M8.86314 14.5575C8.79752 14.6343 7.86377 15.3918 7.86377 15.3918C7.86377 15.3918 7.89752 16.0518 8.10564 16.2056C8.31377 16.3593 8.96252 16.5787 9.38064 16.6668C9.79877 16.755 10.545 16.8543 10.7325 16.7775C10.92 16.7006 11.1169 16.2937 11.1281 15.7668C11.1394 15.24 10.9519 14.8462 10.7438 14.6043C10.5356 14.3625 10.3688 14.2725 10.3688 14.2725L8.86314 14.5575Z" fill="#593329"/>
<path d="M10.1044 15.5457C10.2263 15.4088 10.3688 14.2707 10.3688 14.2707C10.3688 14.2707 9.52318 13.622 9.17068 13.5788C8.81818 13.5357 8.40193 13.5676 8.28005 13.6988C8.16005 13.8301 7.68755 14.3026 7.73068 14.6101C7.7738 14.9176 7.86193 15.3901 7.86193 15.3901C7.86193 15.3901 9.8513 15.8326 10.1044 15.5457Z" fill="#925849"/>
<path d="M14.2031 16.0876C14.2031 16.0876 14.0963 16.8001 14.88 16.9351C15.6638 17.0682 16.3144 17.2464 16.6538 17.1751C16.9931 17.1039 17.3307 16.6501 17.3663 16.3201C17.4019 15.9901 17.4207 15.5139 17.3663 15.3845C17.2238 15.0414 16.5638 14.102 16.2431 14.0026C16.0631 13.9482 15.8925 13.9782 15.8925 13.9782L14.2031 16.0876Z" fill="#593329"/>
<path d="M14.7112 14.8387C14.3606 15.2268 14.1806 15.7874 14.1993 16.0837C14.2181 16.363 15.5475 16.2412 15.705 16.1455C15.8625 16.0499 16.2056 15.6224 16.2168 15.4799C16.2281 15.3374 16.1193 14.8912 16.1006 14.6155C16.0818 14.3399 16.0743 13.9649 15.9225 13.9743C15.7706 13.9837 15.21 14.2874 14.7112 14.8387Z" fill="#925849"/>
<path d="M19.2076 10.0012C19.2076 10.0012 19.5169 10.0462 19.8976 10.275C20.3419 10.5412 20.8069 11.22 20.7713 11.7731C20.7357 12.3262 20.2538 12.5756 19.6669 12.585C19.0801 12.5943 18.5063 12.5625 18.3994 12.2587C18.2926 11.955 19.2076 10.0012 19.2076 10.0012Z" fill="#593329"/>
<path d="M18.7388 10.1868C18.6469 10.3143 18.4088 10.7043 18.3282 11.203C18.2475 11.7018 18.3019 12.2718 18.48 12.3711C18.6582 12.4686 19.6388 11.623 19.6913 11.533C19.7457 11.443 19.3782 10.0799 19.2619 10.018C19.1457 9.95614 18.855 10.0274 18.7388 10.1868Z" fill="#925849"/>
<defs>
<radialGradient id="paint0_radial_96_401" cx="0" cy="0" r="1" gradientUnits="userSpaceOnUse" gradientTransform="translate(12.0308 10.7994) scale(9.97537)">
<stop offset="0.507" stop-color="#F29F58"/>
<stop offset="0.7151" stop-color="#F09D56"/>
<stop offset="0.8262" stop-color="#EB9550"/>
<stop offset="0.9141" stop-color="#E18745"/>
<stop offset="0.9898" stop-color="#D47436"/>
<stop offset="1" stop-color="#D27133"/>
</radialGradient>
</defs>
</svg>
