<svg width="67" height="103" viewBox="0 0 67 103" fill="none" xmlns="http://www.w3.org/2000/svg">
<path d="M0 12C0 9.23858 2.23858 7 5 7H62C64.7614 7 67 9.23858 67 12V47H0V12Z" fill="#CBD5D8"/>
<rect y="45.8572" width="67" height="2.28571" fill="#75898D"/>
<rect x="5.35986" y="21.8572" width="1.34" height="10.2857" fill="#75898D"/>
<rect y="47" width="67" height="56" fill="#CBD5D8"/>
<rect x="5.35986" y="51.5715" width="1.34" height="10.2857" fill="#75898D"/>
<path d="M25 25C29.4183 25 33 19.4036 33 12.5C33 5.59644 29.4183 0 25 0C20.5817 0 17 5.59644 17 12.5C17 19.4036 20.5817 25 25 25Z" fill="white"/>
<path d="M41.5 25C46.1944 25 50 19.4036 50 12.5C50 5.59644 46.1944 0 41.5 0C36.8056 0 33 5.59644 33 12.5C33 19.4036 36.8056 25 41.5 25Z" fill="white"/>
<path d="M21.5 18C23.433 18 25 15.7614 25 13C25 10.2386 23.433 8 21.5 8C19.567 8 18 10.2386 18 13C18 15.7614 19.567 18 21.5 18Z" fill="black"/>
<path d="M19.5 11C19.7761 11 20 10.7761 20 10.5C20 10.2239 19.7761 10 19.5 10C19.2239 10 19 10.2239 19 10.5C19 10.7761 19.2239 11 19.5 11Z" fill="white"/>
<path d="M19.5 11C19.7761 11 20 10.7761 20 10.5C20 10.2239 19.7761 10 19.5 10C19.2239 10 19 10.2239 19 10.5C19 10.7761 19.2239 11 19.5 11Z" fill="white"/>
<path d="M37.5 18C39.433 18 41 15.7614 41 13C41 10.2386 39.433 8 37.5 8C35.567 8 34 10.2386 34 13C34 15.7614 35.567 18 37.5 18Z" fill="black"/>
<g style="mix-blend-mode:multiply">
<path d="M33.7327 35C29.4693 34.7363 25.4368 32.7855 22.3796 29.5077C22.1317 29.2273 21.9951 28.8501 22.0001 28.459C22.0051 28.068 22.1512 27.6951 22.4063 27.4224C22.6613 27.1498 23.0045 26.9997 23.3602 27.0052C23.7159 27.0107 24.055 27.1714 24.303 27.4518C26.8708 30.1699 30.2295 31.803 33.7861 32.0629C35.4813 31.9923 37.1459 31.5447 38.6794 30.7471C40.2128 29.9496 41.5834 28.8185 42.7083 27.4224C42.9624 27.1515 43.3026 27 43.6566 27C44.0106 27 44.3507 27.1515 44.6049 27.4224C44.7301 27.559 44.8295 27.7214 44.8973 27.9004C44.9651 28.0793 45 28.2713 45 28.4651C45 28.659 44.9651 28.8509 44.8973 29.0299C44.8295 29.2088 44.7301 29.3712 44.6049 29.5077C43.2258 31.1856 41.5509 32.5377 39.6819 33.4819C37.8129 34.4261 35.7889 34.9426 33.7327 35Z" fill="black"/>
</g>
<path d="M35.5 11C35.7761 11 36 10.7761 36 10.5C36 10.2239 35.7761 10 35.5 10C35.2239 10 35 10.2239 35 10.5C35 10.7761 35.2239 11 35.5 11Z" fill="white"/>
</svg>
