<svg width="24" height="25" viewBox="0 0 24 25" fill="none" xmlns="http://www.w3.org/2000/svg">
<g id="home">
<path id="Vector " fill-rule="evenodd" clip-rule="evenodd" d="M11.3861 1.26105C11.7472 0.968484 12.2528 0.968484 12.6139 1.26105L21.6139 8.55272C21.8575 8.75007 22 9.05351 22 9.37496V20.8333C22 21.6621 21.6839 22.457 21.1213 23.043C20.5587 23.6291 19.7957 23.9583 19 23.9583H5C4.20435 23.9583 3.44129 23.6291 2.87868 23.043C2.31607 22.457 2 21.6621 2 20.8333V9.37496C2 9.05351 2.14247 8.75007 2.38606 8.55272L11.3861 1.26105ZM4 9.88442V20.8333C4 21.1096 4.10536 21.3745 4.29289 21.5699C4.48043 21.7652 4.73478 21.875 5 21.875H8V12.4999C8 11.9246 8.44772 11.4583 9 11.4583H15C15.5523 11.4583 16 11.9246 16 12.4999V21.875H19C19.2652 21.875 19.5196 21.7652 19.7071 21.5699C19.8946 21.3745 20 21.1096 20 20.8333V9.88442L12 3.40294L4 9.88442ZM14 21.875V13.5416H10V21.875H14Z" fill="white"/>
</g>
</svg>
