<?xml version="1.0" standalone="no"?>
<!DOCTYPE svg PUBLIC "-//W3C//DTD SVG 20010904//EN"
 "http://www.w3.org/TR/2001/REC-SVG-20010904/DTD/svg10.dtd">
<svg version="1.0" xmlns="http://www.w3.org/2000/svg"
 width="512.000000pt" height="512.000000pt" viewBox="0 0 512.000000 512.000000"
 preserveAspectRatio="xMidYMid meet">

<g transform="translate(0.000000,512.000000) scale(0.100000,-0.100000)"
fill="#FF0000" stroke="none">
<path d="M2341 5110 c-618 -60 -1150 -309 -1582 -740 -207 -207 -340 -385
-465 -624 -435 -834 -382 -1822 141 -2606 408 -613 1045 -1010 1790 -1116 147
-21 481 -24 640 -6 314 37 657 147 928 298 727 407 1214 1129 1309 1939 18
159 15 493 -6 640 -65 456 -223 842 -494 1205 -99 132 -337 376 -462 472 -375
289 -771 456 -1240 523 -131 19 -434 27 -559 15z m-643 -1389 c20 -11 226
-209 457 -440 l420 -421 425 424 c234 233 439 431 457 440 18 9 57 16 91 16
112 0 192 -82 192 -199 0 -32 -7 -66 -19 -89 -11 -20 -209 -226 -440 -457
l-421 -420 424 -425 c233 -234 431 -439 440 -457 9 -18 16 -57 16 -91 0 -131
-118 -222 -246 -191 -46 11 -72 35 -484 445 l-435 434 -425 -425 c-235 -235
-441 -433 -460 -442 -78 -38 -191 -10 -243 59 -50 66 -56 142 -16 218 10 19
207 224 438 455 l421 420 -434 435 c-410 412 -434 438 -445 484 -14 58 -8 96
25 153 49 86 172 120 262 74z"/>
</g>
</svg>
